<svg width="288" height="98" viewBox="0 0 288 98" fill="none" xmlns="http://www.w3.org/2000/svg">
<path d="M224.587 81.573C207.825 81.573 194.189 67.775 194.189 50.815C194.189 50.119 194.213 49.405 194.26 48.692L198.27 48.956C198.23 49.569 198.208 50.187 198.208 50.814C198.208 65.557 210.041 77.553 224.587 77.553C239.133 77.553 250.968 65.557 250.968 50.814C250.968 50.443 250.962 50.078 250.946 49.715L254.961 49.535C254.98 49.956 254.987 50.382 254.987 50.813C254.986 67.775 241.35 81.573 224.587 81.573Z" fill="white"/>
<path d="M220.979 97.131C195.167 97.131 174.168 75.874 174.168 49.748H178.187C178.187 73.659 197.383 93.111 220.979 93.111C240.973 93.111 258.111 79.348 262.651 59.643L266.568 60.545C261.604 82.087 242.857 97.131 220.979 97.131Z" fill="white"/>
<path d="M267.789 48.253H263.769C263.769 47.622 263.756 46.993 263.731 46.367L267.746 46.204C267.774 46.883 267.789 47.566 267.789 48.253Z" fill="white"/>
<path d="M263.418 42.67C263.261 41.419 263.047 40.163 262.781 38.939L266.71 38.09C266.999 39.428 267.233 40.799 267.406 42.166L263.418 42.67ZM261.822 35.276C261.452 34.078 261.024 32.879 260.548 31.711L264.272 30.196C264.791 31.472 265.258 32.782 265.663 34.091L261.822 35.276ZM182.826 28.595L179.234 26.789C179.791 25.684 180.398 24.586 181.039 23.527L184.477 25.608C183.89 26.578 183.335 27.583 182.826 28.595ZM258.968 28.272C258.394 27.154 257.764 26.048 257.095 24.984L260.495 22.843C261.227 24.006 261.917 25.216 262.543 26.438L258.968 28.272ZM186.576 22.459L183.332 20.086C184.142 18.979 185.011 17.893 185.916 16.858L188.941 19.504C188.113 20.452 187.317 21.445 186.576 22.459ZM254.942 21.869C254.18 20.863 253.367 19.882 252.527 18.954L255.506 16.256C256.424 17.27 257.313 18.342 258.146 19.441L254.942 21.869ZM191.555 16.767L188.771 13.869C189.763 12.917 190.808 11.998 191.877 11.137L194.397 14.269C193.417 15.056 192.462 15.896 191.555 16.767ZM249.867 16.261C248.941 15.403 247.971 14.578 246.983 13.811L249.446 10.636C250.527 11.475 251.589 12.376 252.6 13.314L249.867 16.261ZM197.446 12.028L195.213 8.687C196.359 7.921 197.549 7.199 198.753 6.541L200.682 10.067C199.582 10.669 198.493 11.329 197.446 12.028ZM243.896 11.625C242.836 10.943 241.738 10.302 240.628 9.721L242.496 6.162C243.71 6.799 244.913 7.5 246.071 8.246L243.896 11.625ZM204.078 8.402L202.47 4.718C203.73 4.168 205.031 3.669 206.337 3.234L207.607 7.047C206.414 7.444 205.227 7.9 204.078 8.402ZM237.206 8.114C236.046 7.632 234.852 7.197 233.655 6.822L234.858 2.988C236.169 3.399 237.477 3.876 238.749 4.404L237.206 8.114ZM211.245 6.015L210.322 2.103C211.66 1.788 213.03 1.529 214.394 1.334L214.961 5.313C213.717 5.491 212.466 5.727 211.245 6.015ZM230.002 5.854C228.777 5.588 227.524 5.374 226.276 5.217L226.776 1.229C228.142 1.4 229.515 1.635 230.855 1.927L230.002 5.854ZM218.726 4.947L218.514 0.934001C219.885 0.862001 221.277 0.850001 222.652 0.899001L222.507 4.915C221.249 4.869 219.977 4.881 218.726 4.947Z" fill="white"/>
<path d="M181.292 32.005L177.561 30.512C177.815 29.875 178.082 29.243 178.364 28.62L182.026 30.273C181.769 30.845 181.525 31.422 181.292 32.005Z" fill="white"/>
<path d="M179.11 60.378L175.496 58.609L160 51.159L171.082 45.825C174.399 37.511 182.436 31.983 191.34 31.983C201.511 31.983 210.483 39.274 212.671 49.319L213.202 51.757H185.532V47.738H208.029C205.452 40.809 198.789 36.002 191.34 36.002C184.18 36.002 177.703 40.398 174.927 47.041L178.337 47.069C178.305 50.901 178.409 53.353 178.752 56.788L179.11 60.378ZM169.271 51.157L174.46 53.653C174.362 52.06 174.317 50.508 174.312 48.687L174.293 48.739L169.271 51.157Z" fill="white"/>
<path d="M248.634 68.251L247.067 64.551L277.31 51.755H208.432V47.736H287.217L288 51.597L248.634 68.251Z" fill="white"/>
<path d="M48.5312 43.3281C47.3737 43.3281 46.4121 43.2233 45.6465 43.0137C44.89 42.804 44.2793 42.5443 43.8145 42.2344C43.3587 41.9154 43.0078 41.6009 42.7617 41.291C42.6797 41.1725 42.6068 41.0586 42.543 40.9492C42.4792 40.8398 42.4336 40.7168 42.4062 40.5801C42.3698 40.3978 42.3333 40.1608 42.2969 39.8691C42.2604 39.5684 42.2559 39.222 42.2832 38.8301C42.2923 38.666 42.3242 38.5521 42.3789 38.4883C42.4427 38.4154 42.5475 38.3607 42.6934 38.3242C42.9577 38.2604 43.2995 38.2057 43.7188 38.1602C44.1471 38.1055 44.4525 38.0781 44.6348 38.0781C44.8262 38.0781 44.9811 38.1146 45.0996 38.1875C45.2181 38.2604 45.3594 38.3835 45.5234 38.5566C45.7057 38.748 46.0202 38.9941 46.4668 39.2949C46.9134 39.5866 47.6016 39.7324 48.5312 39.7324C49.4245 39.7324 50.099 39.5456 50.5547 39.1719C51.0104 38.7982 51.2383 38.2786 51.2383 37.6133C51.2383 37.2578 51.1289 36.9251 50.9102 36.6152C50.7005 36.2962 50.3132 35.9818 49.748 35.6719C49.1829 35.3529 48.3763 35.0202 47.3281 34.6738C45.5964 34.0905 44.3477 33.3659 43.582 32.5C42.8164 31.6341 42.4336 30.431 42.4336 28.8906C42.4336 27.6146 42.7435 26.5482 43.3633 25.6914C43.9831 24.8346 44.8398 24.1875 45.9336 23.75C47.0273 23.3125 48.2897 23.0938 49.7207 23.0938C50.8236 23.0938 51.735 23.2259 52.4551 23.4902C53.1842 23.7454 53.7493 24.0371 54.1504 24.3652C54.5514 24.6842 54.8112 24.944 54.9297 25.1445C55.0026 25.263 55.0482 25.3542 55.0664 25.418C55.0938 25.4727 55.112 25.5501 55.1211 25.6504C55.1484 25.9329 55.1576 26.2474 55.1484 26.5938C55.1393 26.9401 55.1074 27.332 55.0527 27.7695C55.0254 27.9154 54.9753 28.0156 54.9023 28.0703C54.8385 28.1159 54.7383 28.1387 54.6016 28.1387C53.7174 28.1569 53.0339 28.1113 52.5508 28.002C52.3594 27.9564 52.2318 27.9108 52.168 27.8652C52.1042 27.8197 52.0221 27.7467 51.9219 27.6465C51.776 27.4733 51.5436 27.2728 51.2246 27.0449C50.9147 26.8079 50.4134 26.6895 49.7207 26.6895C48.7637 26.6895 48.0846 26.9082 47.6836 27.3457C47.2826 27.7741 47.082 28.2572 47.082 28.7949C47.082 29.4329 47.3783 29.9342 47.9707 30.2988C48.5632 30.6543 49.4974 31.0599 50.7734 31.5156C51.8398 31.8893 52.7559 32.2949 53.5215 32.7324C54.2871 33.1699 54.8704 33.7305 55.2715 34.4141C55.6816 35.0977 55.8867 36 55.8867 37.1211C55.8867 38.5156 55.5632 39.6732 54.916 40.5938C54.278 41.5143 53.403 42.2025 52.291 42.6582C51.1882 43.1048 49.9349 43.3281 48.5312 43.3281Z" fill="white"/>
<path d="M63.2832 42.2754C63.2832 42.5488 63.224 42.7402 63.1055 42.8496C62.9961 42.9499 62.8047 43 62.5312 43H59.7148C59.4414 43 59.2454 42.9499 59.127 42.8496C59.0176 42.7402 58.9629 42.5488 58.9629 42.2754V23.7773C58.9629 23.5586 59.0085 23.39 59.0996 23.2715C59.4824 22.7702 60.043 22.2279 60.7812 21.6445C60.9089 21.5534 61.0228 21.5078 61.123 21.5078C61.2415 21.5078 61.3555 21.5534 61.4648 21.6445C61.8568 21.9453 62.1849 22.2279 62.4492 22.4922C62.7227 22.7565 62.9551 23.0163 63.1465 23.2715C63.2376 23.39 63.2832 23.5586 63.2832 23.7773V34.5098H63.4473C64.8327 34.5098 65.7715 34.2637 66.2637 33.7715C66.765 33.2702 67.0156 32.5775 67.0156 31.6934V30.9551C67.0156 30.7363 67.0612 30.5677 67.1523 30.4492C67.5352 29.9479 68.0957 29.4056 68.834 28.8223C68.9616 28.7311 69.0755 28.6855 69.1758 28.6855C69.2943 28.6855 69.4082 28.7311 69.5176 28.8223C69.9095 29.123 70.2376 29.4056 70.502 29.6699C70.7754 29.9342 71.0078 30.194 71.1992 30.4492C71.2904 30.5677 71.3359 30.7363 71.3359 30.9551V31.6934C71.3359 32.2129 71.2311 32.7871 71.0215 33.416C70.821 34.0449 70.4518 34.6009 69.9141 35.084C69.3763 35.5671 68.6107 35.8496 67.6172 35.9316V36C68.3828 36.3372 69.0436 36.7839 69.5996 37.3398C70.1556 37.8958 70.6204 38.4928 70.9941 39.1309C71.3678 39.7598 71.6549 40.3659 71.8555 40.9492C72.0651 41.5234 72.2018 42.0111 72.2656 42.4121C72.3294 42.804 72.1973 43 71.8691 43H68.2734C67.9635 43 67.7858 42.8132 67.7402 42.4395C67.6764 42.0111 67.5352 41.5098 67.3164 40.9355C67.1068 40.3522 66.8197 39.7826 66.4551 39.2266C66.0996 38.6706 65.6667 38.2103 65.1562 37.8457C64.6549 37.472 64.0853 37.2852 63.4473 37.2852H63.2832V42.2754Z" fill="white"/>
<path d="M75.2598 49.5762C74.9225 49.5762 74.6673 49.5397 74.4941 49.4668C74.321 49.403 74.1751 49.321 74.0566 49.2207C73.8197 48.9928 73.5645 48.6738 73.291 48.2637C73.2272 48.1634 73.1589 48.0449 73.0859 47.9082C73.013 47.7806 72.9766 47.6712 72.9766 47.5801C72.9766 47.4798 72.9993 47.3887 73.0449 47.3066C73.0905 47.2246 73.1452 47.1471 73.209 47.0742C73.3548 46.8828 73.5326 46.6823 73.7422 46.4727C73.9518 46.2721 74.1296 46.1126 74.2754 45.9941C74.3757 45.9121 74.4577 45.8574 74.5215 45.8301C74.5853 45.8118 74.64 45.8027 74.6855 45.8027C74.7311 45.8027 74.7995 45.8118 74.8906 45.8301C74.9818 45.8483 75.1185 45.8574 75.3008 45.8574C75.9297 45.8574 76.5859 45.6523 77.2695 45.2422C77.9531 44.832 78.6276 44.0618 79.293 42.9316C78.6003 42.2936 77.9167 41.4961 77.2422 40.5391C76.5768 39.5729 75.9753 38.5293 75.4375 37.4082C74.8997 36.278 74.4668 35.1523 74.1387 34.0312C73.8197 32.9102 73.6602 31.8757 73.6602 30.9277C73.6602 30.7272 73.7103 30.5677 73.8105 30.4492C74.2298 29.9297 74.8268 29.3874 75.6016 28.8223C75.7383 28.7311 75.8613 28.6855 75.9707 28.6855C76.0892 28.6855 76.2122 28.7311 76.3398 28.8223C76.7591 29.123 77.11 29.4056 77.3926 29.6699C77.6842 29.9342 77.9303 30.194 78.1309 30.4492C78.2311 30.5677 78.2812 30.7363 78.2812 30.9551V30.9004C78.2812 31.6204 78.3678 32.3815 78.541 33.1836C78.7142 33.9857 78.9512 34.7695 79.252 35.5352C79.5527 36.2917 79.89 36.9798 80.2637 37.5996C80.6374 38.2103 81.0247 38.6979 81.4258 39.0625H81.4941C81.6764 38.7161 81.877 38.2194 82.0957 37.5723C82.3236 36.916 82.5378 36.1914 82.7383 35.3984C82.9388 34.5964 83.1029 33.8034 83.2305 33.0195C83.3581 32.2266 83.4219 31.5247 83.4219 30.9141V30.9551C83.4219 30.7363 83.4674 30.5677 83.5586 30.4492C83.7682 30.194 84.0143 29.9342 84.2969 29.6699C84.5794 29.4056 84.9212 29.123 85.3223 28.8223C85.4499 28.7311 85.5684 28.6855 85.6777 28.6855C85.8053 28.6855 85.9238 28.7311 86.0332 28.8223C86.4434 29.123 86.7897 29.4056 87.0723 29.6699C87.3548 29.9342 87.5964 30.194 87.7969 30.4492C87.888 30.5677 87.9336 30.7318 87.9336 30.9414C87.9245 31.7708 87.765 32.8555 87.4551 34.1953C87.1452 35.526 86.694 36.9707 86.1016 38.5293C85.5091 40.0879 84.7891 41.6146 83.9414 43.1094C82.6745 45.3607 81.3073 47.0013 79.8398 48.0312C78.3724 49.0612 76.8457 49.5762 75.2598 49.5762ZM87.9336 30.9141V30.9551V30.9414C87.9336 30.9323 87.9336 30.9232 87.9336 30.9141ZM73.6602 30.9141V30.9277V30.9551V30.9141Z" fill="white"/>
<path d="M103.314 25.582C103.314 25.3177 103.36 25.1172 103.451 24.9805C103.861 24.3789 104.436 23.7454 105.174 23.0801C105.311 22.9707 105.429 22.916 105.529 22.916C105.639 22.916 105.753 22.9707 105.871 23.0801C106.272 23.4264 106.609 23.7591 106.883 24.0781C107.156 24.388 107.393 24.6888 107.594 24.9805C107.685 25.1263 107.73 25.3268 107.73 25.582V42.2754C107.73 42.5488 107.671 42.7402 107.553 42.8496C107.443 42.9499 107.252 43 106.979 43H104.066C103.793 43 103.597 42.9499 103.479 42.8496C103.369 42.7402 103.314 42.5488 103.314 42.2754V35.0156H95.1934V42.2754C95.1934 42.5488 95.1341 42.7402 95.0156 42.8496C94.9062 42.9499 94.7148 43 94.4414 43H91.5293C91.2559 43 91.0599 42.9499 90.9414 42.8496C90.832 42.7402 90.7773 42.5488 90.7773 42.2754V24.1191C90.7773 23.8457 90.832 23.6589 90.9414 23.5586C91.0599 23.4492 91.2559 23.3945 91.5293 23.3945H94.4414C94.7148 23.3945 94.9062 23.4492 95.0156 23.5586C95.1341 23.6589 95.1934 23.8457 95.1934 24.1191V31.2148H103.314V25.582Z" fill="white"/>
<path d="M110.725 24.4062C110.725 24.2878 110.761 24.1829 110.834 24.0918C110.907 24.0007 111.003 23.8822 111.121 23.7363C111.376 23.4447 111.673 23.1393 112.01 22.8203C112.347 22.4922 112.689 22.1777 113.035 21.877C113.254 21.7038 113.418 21.6172 113.527 21.6172C113.637 21.6172 113.805 21.7038 114.033 21.877C114.771 22.515 115.4 23.1348 115.92 23.7363C116.038 23.873 116.134 23.9915 116.207 24.0918C116.289 24.1829 116.33 24.2878 116.33 24.4062C116.33 24.5247 116.289 24.6296 116.207 24.7207C116.134 24.8118 116.034 24.9349 115.906 25.0898C115.66 25.3724 115.373 25.6777 115.045 26.0059C114.717 26.3249 114.38 26.6302 114.033 26.9219C113.906 27.0312 113.805 27.1042 113.732 27.1406C113.66 27.168 113.591 27.1816 113.527 27.1816C113.464 27.1816 113.395 27.168 113.322 27.1406C113.258 27.1042 113.154 27.0312 113.008 26.9219C112.643 26.6302 112.301 26.3249 111.982 26.0059C111.663 25.6777 111.376 25.3633 111.121 25.0625C111.003 24.9167 110.907 24.8027 110.834 24.7207C110.761 24.6296 110.725 24.5247 110.725 24.4062ZM115.674 42.2754C115.674 42.5488 115.615 42.7402 115.496 42.8496C115.387 42.9499 115.195 43 114.922 43H112.105C111.832 43 111.636 42.9499 111.518 42.8496C111.408 42.7402 111.354 42.5488 111.354 42.2754V29.7246C111.354 29.4512 111.408 29.2643 111.518 29.1641C111.636 29.0547 111.832 29 112.105 29H114.922C115.195 29 115.387 29.0547 115.496 29.1641C115.615 29.2643 115.674 29.4512 115.674 29.7246V42.2754Z" fill="white"/>
<path d="M132.928 30.3125V41.4004C132.928 44.0618 132.167 46.0898 130.645 47.4844C129.132 48.8789 127.053 49.5762 124.41 49.5762C123.316 49.5762 122.451 49.4941 121.812 49.3301C121.174 49.1751 120.691 49.0247 120.363 48.8789C120.154 48.7786 120.017 48.6738 119.953 48.5645C119.862 48.4186 119.757 48.2044 119.639 47.9219C119.529 47.6393 119.424 47.3294 119.324 46.9922C119.297 46.8646 119.292 46.7689 119.311 46.7051C119.347 46.6139 119.415 46.5182 119.516 46.418C119.68 46.2539 119.912 46.0625 120.213 45.8438C120.523 45.625 120.76 45.4837 120.924 45.4199C121.097 45.3561 121.257 45.3652 121.402 45.4473C121.639 45.5749 121.977 45.7161 122.414 45.8711C122.861 46.0352 123.485 46.1172 124.287 46.1172C125.563 46.1172 126.602 45.7891 127.404 45.1328C128.206 44.4766 128.607 43.4648 128.607 42.0977V41.6055H128.553C128.352 41.8607 128.092 42.1204 127.773 42.3848C127.454 42.6491 127.04 42.8724 126.529 43.0547C126.028 43.237 125.381 43.3281 124.588 43.3281C123.212 43.3281 122.081 43.0319 121.197 42.4395C120.322 41.8379 119.675 41.013 119.256 39.9648C118.846 38.9167 118.641 37.7227 118.641 36.3828C118.641 34.9154 118.882 33.5983 119.365 32.4316C119.848 31.265 120.66 30.3444 121.799 29.6699C122.938 28.9863 124.497 28.6445 126.475 28.6445C127.66 28.6445 128.653 28.7311 129.455 28.9043C130.266 29.0775 130.945 29.2917 131.492 29.5469C132.039 29.8021 132.518 30.0573 132.928 30.3125ZM126.324 31.9531C125.267 31.9531 124.46 32.3086 123.904 33.0195C123.348 33.7305 123.07 34.8333 123.07 36.3281C123.07 38.6706 124.036 39.8418 125.969 39.8418C126.725 39.8418 127.304 39.6868 127.705 39.377C128.106 39.0671 128.407 38.6751 128.607 38.2012V32.5547C128.407 32.4089 128.124 32.2721 127.76 32.1445C127.395 32.0169 126.917 31.9531 126.324 31.9531Z" fill="white"/>
<path d="M140.939 42.2754C140.939 42.5488 140.88 42.7402 140.762 42.8496C140.652 42.9499 140.461 43 140.188 43H137.371C137.098 43 136.902 42.9499 136.783 42.8496C136.674 42.7402 136.619 42.5488 136.619 42.2754V23.7773C136.619 23.5586 136.665 23.39 136.756 23.2715C137.139 22.7702 137.699 22.2279 138.438 21.6445C138.565 21.5534 138.679 21.5078 138.779 21.5078C138.898 21.5078 139.012 21.5534 139.121 21.6445C139.513 21.9453 139.841 22.2279 140.105 22.4922C140.379 22.7565 140.611 23.0163 140.803 23.2715C140.894 23.39 140.939 23.5586 140.939 23.7773V30.4082H140.994C141.195 30.1439 141.454 29.8796 141.773 29.6152C142.092 29.3418 142.516 29.1139 143.045 28.9316C143.583 28.7493 144.266 28.6582 145.096 28.6582C145.934 28.6582 146.741 28.8314 147.516 29.1777C148.29 29.5241 148.924 30.1074 149.416 30.9277C149.908 31.748 150.154 32.8691 150.154 34.291V42.2754C150.154 42.5488 150.095 42.7402 149.977 42.8496C149.867 42.9499 149.676 43 149.402 43H146.586C146.312 43 146.117 42.9499 145.998 42.8496C145.889 42.7402 145.834 42.5488 145.834 42.2754V35.043C145.834 34.0312 145.624 33.2975 145.205 32.8418C144.786 32.377 144.216 32.1445 143.496 32.1445C142.785 32.1445 142.234 32.2995 141.842 32.6094C141.45 32.9193 141.149 33.3112 140.939 33.7852V42.2754Z" fill="white"/>
<path d="M11.9727 61.4746C12.474 62.1764 12.9844 63.0833 13.5039 64.1953C14.0326 65.2982 14.543 66.5104 15.0352 67.832C15.5273 69.1536 15.9694 70.5072 16.3613 71.8926C16.7624 73.2689 17.0905 74.5951 17.3457 75.8711C17.6009 77.1471 17.7467 78.2819 17.7832 79.2754C17.7923 79.7585 17.5736 80 17.127 80H13.8184C13.39 80 13.1667 79.7858 13.1484 79.3574C13.112 78.3366 12.9479 77.097 12.6562 75.6387H5.19141C4.9362 77.0605 4.79036 78.3001 4.75391 79.3574C4.73568 79.7858 4.50325 80 4.05664 80H0.816405C0.652343 80 0.515624 79.9544 0.406249 79.8633C0.296874 79.763 0.246744 79.5944 0.255858 79.3574C0.301431 78.3457 0.447264 77.1973 0.693358 75.9121C0.948567 74.6178 1.27669 73.278 1.67773 71.8926C2.07877 70.5072 2.52539 69.1536 3.01758 67.832C3.50976 66.5013 4.02018 65.2845 4.54883 64.1816C5.07747 63.0788 5.59245 62.1764 6.09375 61.4746C6.35807 61.1009 6.63607 60.8275 6.92773 60.6543C7.22851 60.4811 7.59766 60.3945 8.03516 60.3945H10.0039C10.4505 60.3945 10.8242 60.4811 11.125 60.6543C11.4258 60.8275 11.7083 61.1009 11.9727 61.4746ZM8.88281 64.7148C8.28125 65.6719 7.72982 66.8158 7.22851 68.1465C6.72721 69.4772 6.29427 70.8444 5.92969 72.248H11.8633C11.4805 70.8444 11.0384 69.4772 10.5371 68.1465C10.0358 66.8158 9.51172 65.6719 8.96484 64.7148H8.88281Z" fill="white"/>
<path d="M25.6035 80.3418C24.3913 80.3418 23.3568 80.0456 22.5 79.4531C21.6523 78.8516 21.0052 78.0267 20.5586 76.9785C20.1211 75.9212 19.9023 74.7044 19.9023 73.3281C19.9023 71.5143 20.2214 70.0469 20.8594 68.9258C21.5065 67.7956 22.4134 66.9661 23.5801 66.4375C24.7559 65.9089 26.1413 65.6445 27.7363 65.6445C28.2832 65.6445 28.7344 65.6719 29.0898 65.7266C29.4544 65.7812 29.7142 65.8314 29.8691 65.877V60.7773C29.8691 60.5586 29.9147 60.39 30.0059 60.2715C30.3887 59.7702 30.9492 59.2279 31.6875 58.6445C31.8151 58.5534 31.929 58.5078 32.0293 58.5078C32.1478 58.5078 32.2617 58.5534 32.3711 58.6445C32.763 58.9453 33.0911 59.2279 33.3555 59.4922C33.6289 59.7565 33.8613 60.0163 34.0527 60.2715C34.1439 60.39 34.1895 60.5586 34.1895 60.7773V79.3711C34.1895 79.5443 34.1302 79.6947 34.0117 79.8223C33.8932 79.9408 33.7428 80 33.5605 80H31.5234C31.3776 80 31.2454 79.9818 31.127 79.9453C31.0176 79.8997 30.9128 79.8177 30.8125 79.6992L29.9648 78.6055H29.8691C29.7506 78.7878 29.5365 79.0202 29.2266 79.3027C28.9258 79.5762 28.4837 79.8177 27.9004 80.0273C27.3262 80.237 26.5605 80.3418 25.6035 80.3418ZM26.9297 76.8418C27.75 76.8418 28.3926 76.6868 28.8574 76.377C29.3314 76.0671 29.6686 75.6751 29.8691 75.2012V69.4727C29.7233 69.3815 29.4818 69.2721 29.1445 69.1445C28.8073 69.0169 28.3333 68.9531 27.7227 68.9531C26.5924 68.9531 25.7448 69.3223 25.1797 70.0605C24.6146 70.7988 24.332 71.7923 24.332 73.041C24.332 74.3353 24.569 75.2923 25.043 75.9121C25.5169 76.5319 26.1458 76.8418 26.9297 76.8418Z" fill="white"/>
<path d="M40.5605 78.7285C40.0592 77.9355 39.5625 77.0241 39.0703 75.9941C38.5872 74.9551 38.1452 73.9069 37.7441 72.8496C37.3522 71.7832 37.0378 70.8125 36.8008 69.9375C36.5638 69.0534 36.4453 68.3743 36.4453 67.9004C36.4453 67.7181 36.4954 67.5677 36.5957 67.4492C37.015 66.9297 37.612 66.3874 38.3867 65.8223C38.5234 65.7311 38.6465 65.6855 38.7559 65.6855C38.8743 65.6855 38.9974 65.7311 39.125 65.8223C39.5443 66.123 39.8952 66.4056 40.1777 66.6699C40.4694 66.9342 40.7155 67.194 40.916 67.4492C41.0163 67.5677 41.0664 67.7363 41.0664 67.9551V67.8867C41.0664 68.4792 41.1712 69.2585 41.3809 70.2246C41.5996 71.1816 41.8958 72.1934 42.2695 73.2598C42.6432 74.3262 43.0762 75.306 43.5684 76.1992H43.6367C44.0469 75.5247 44.4115 74.7956 44.7305 74.0117C45.0495 73.2279 45.3184 72.444 45.5371 71.6602C45.7559 70.8763 45.9199 70.1562 46.0293 69.5C46.1478 68.8438 46.207 68.3105 46.207 67.9004V67.9551C46.207 67.7363 46.2526 67.5677 46.3438 67.4492C46.5534 67.194 46.7995 66.9342 47.082 66.6699C47.3646 66.4056 47.7064 66.123 48.1074 65.8223C48.235 65.7311 48.3535 65.6855 48.4629 65.6855C48.5905 65.6855 48.709 65.7311 48.8184 65.8223C49.2285 66.123 49.5749 66.4056 49.8574 66.6699C50.14 66.9342 50.3815 67.194 50.582 67.4492C50.6732 67.5677 50.7188 67.7272 50.7188 67.9277C50.7096 68.4199 50.582 69.1126 50.3359 70.0059C50.0898 70.89 49.7572 71.8652 49.3379 72.9316C48.9277 73.9889 48.4674 75.0326 47.957 76.0625C47.4466 77.0833 46.9271 77.972 46.3984 78.7285C46.0794 79.1934 45.7923 79.5215 45.5371 79.7129C45.2819 79.9043 44.8398 80 44.2109 80H42.7617C42.1055 80 41.6497 79.9089 41.3945 79.7266C41.1484 79.5443 40.8704 79.2116 40.5605 78.7285ZM36.4453 67.8867V67.9004C36.4453 67.9186 36.4453 67.9368 36.4453 67.9551V67.8867ZM50.7188 67.9004V67.9551V67.9277C50.7188 67.9186 50.7188 67.9095 50.7188 67.9004Z" fill="white"/>
<path d="M60.1113 80.3418C58.571 80.3418 57.2311 80.0957 56.0918 79.6035C54.9525 79.1022 54.0684 78.3275 53.4395 77.2793C52.8105 76.2311 52.4961 74.8776 52.4961 73.2188C52.4961 70.7305 53.1341 68.8483 54.4102 67.5723C55.6862 66.2962 57.3815 65.6582 59.4961 65.6582C60.8724 65.6582 62.0345 65.9043 62.9824 66.3965C63.9395 66.8887 64.6641 67.5677 65.1562 68.4336C65.6576 69.2995 65.9082 70.2884 65.9082 71.4004C65.9082 72.485 65.6302 73.2415 65.0742 73.6699C64.5182 74.0983 63.707 74.3125 62.6406 74.3125H56.7754C56.8483 75.2513 57.1901 75.9668 57.8008 76.459C58.4206 76.9512 59.2591 77.1973 60.3164 77.1973C61.1549 77.1973 61.8249 77.0742 62.3262 76.8281C62.8366 76.5729 63.1921 76.3724 63.3926 76.2266C63.5658 76.099 63.7617 76.0397 63.9805 76.0488C64.1536 76.0488 64.3997 76.0853 64.7188 76.1582C65.0469 76.222 65.3704 76.3451 65.6895 76.5273C65.9173 76.6458 66.0312 76.8099 66.0312 77.0195C66.0312 77.138 66.0085 77.3066 65.9629 77.5254C65.9355 77.653 65.89 77.8398 65.8262 78.0859C65.7624 78.3229 65.6803 78.5462 65.5801 78.7559C65.5254 78.8561 65.4388 78.9518 65.3203 79.043C65.138 79.1706 64.8418 79.3392 64.4316 79.5488C64.0306 79.7585 63.4792 79.9408 62.7773 80.0957C62.0755 80.2598 61.1868 80.3418 60.1113 80.3418ZM56.748 71.5098H61.2051C61.6699 71.5098 61.9023 71.2956 61.9023 70.8672C61.9023 70.2201 61.6973 69.6777 61.2871 69.2402C60.8861 68.7936 60.2799 68.5703 59.4688 68.5703C58.5846 68.5703 57.9329 68.8529 57.5137 69.418C57.1035 69.9831 56.8483 70.6803 56.748 71.5098Z" fill="white"/>
<path d="M82.4512 71.291V79.2754C82.4512 79.5488 82.3919 79.7402 82.2734 79.8496C82.1641 79.9499 81.9727 80 81.6992 80H78.8828C78.6094 80 78.4134 79.9499 78.2949 79.8496C78.1855 79.7402 78.1309 79.5488 78.1309 79.2754V72.002C78.1309 71.0085 77.9212 70.2839 77.502 69.8281C77.0827 69.3724 76.513 69.1445 75.793 69.1445C75.0729 69.1445 74.5169 69.2995 74.125 69.6094C73.7422 69.9193 73.446 70.3112 73.2363 70.7852V79.2754C73.2363 79.5488 73.1771 79.7402 73.0586 79.8496C72.9492 79.9499 72.7578 80 72.4844 80H69.668C69.3945 80 69.1986 79.9499 69.0801 79.8496C68.9707 79.7402 68.916 79.5488 68.916 79.2754V67.8184C68.916 67.5996 68.9616 67.431 69.0527 67.3125C69.2441 67.0573 69.472 66.7975 69.7363 66.5332C70.0098 66.2689 70.3424 65.9863 70.7344 65.6855C70.8529 65.5944 70.9668 65.5488 71.0762 65.5488C71.1764 65.5488 71.2904 65.5944 71.418 65.6855C71.8008 65.9863 72.1289 66.2734 72.4023 66.5469C72.6758 66.8203 72.9173 67.1029 73.127 67.3945H73.1953C73.3503 67.194 73.5827 66.9616 73.8926 66.6973C74.2025 66.4238 74.6354 66.1823 75.1914 65.9727C75.7565 65.763 76.4766 65.6582 77.3516 65.6582C78.2083 65.6582 79.0241 65.8314 79.7988 66.1777C80.5736 66.5241 81.207 67.1074 81.6992 67.9277C82.2005 68.748 82.4512 69.8691 82.4512 71.291Z" fill="white"/>
<path d="M91.4062 80.3418C88.362 80.3418 86.8398 78.7604 86.8398 75.5977V69.1855H85.2949C85.0215 69.1855 84.8301 69.1309 84.7207 69.0215C84.6204 68.903 84.5703 68.707 84.5703 68.4336V66.752C84.5703 66.4785 84.6204 66.2871 84.7207 66.1777C84.8301 66.0592 85.0215 66 85.2949 66H86.8398V63.7988C86.8398 63.5801 86.8854 63.4115 86.9766 63.293C87.3594 62.7917 87.9199 62.2493 88.6582 61.666C88.7858 61.5749 88.8997 61.5293 89 61.5293C89.1094 61.5293 89.2188 61.5749 89.3281 61.666C89.7201 61.9668 90.0482 62.2493 90.3125 62.5137C90.5859 62.778 90.8184 63.0378 91.0098 63.293C91.1009 63.4115 91.1465 63.5801 91.1465 63.7988V66H93.5664C93.8398 66 94.0267 66.0592 94.127 66.1777C94.2363 66.2871 94.291 66.4785 94.291 66.752V68.4336C94.291 68.707 94.2363 68.903 94.127 69.0215C94.0267 69.1309 93.8398 69.1855 93.5664 69.1855H91.1465V74.8457C91.1465 76.304 91.6751 77.0332 92.7324 77.0332C92.8965 77.0332 93.0469 77.0195 93.1836 76.9922C93.3203 76.9557 93.4388 76.9193 93.5391 76.8828C93.7305 76.8099 93.8626 76.7826 93.9355 76.8008C94.0176 76.819 94.0905 76.9193 94.1543 77.1016L94.9473 79.2207C95.0293 79.4486 94.9746 79.6126 94.7832 79.7129C94.6465 79.7767 94.3138 79.8952 93.7852 80.0684C93.2656 80.2507 92.4727 80.3418 91.4062 80.3418Z" fill="white"/>
<path d="M101.852 80.3418C98.6068 80.3418 96.9844 78.3776 96.9844 74.4492L96.9707 67.5039C96.9707 67.2852 97.0163 67.1165 97.1074 66.998C97.4902 66.4967 98.0508 65.9544 98.7891 65.3711C98.9167 65.2799 99.0306 65.2344 99.1309 65.2344C99.2493 65.2344 99.3633 65.2799 99.4727 65.3711C99.8646 65.6719 100.193 65.9544 100.457 66.2188C100.73 66.4831 100.963 66.7428 101.154 66.998C101.245 67.1165 101.291 67.2852 101.291 67.5039V74.0664C101.291 76.0443 102.075 77.0332 103.643 77.0332C104.417 77.0332 105.037 76.7643 105.502 76.2266C105.967 75.6797 106.199 74.9414 106.199 74.0117V67.5039C106.199 67.2852 106.245 67.1165 106.336 66.998C106.719 66.4967 107.279 65.9544 108.018 65.3711C108.145 65.2799 108.259 65.2344 108.359 65.2344C108.478 65.2344 108.592 65.2799 108.701 65.3711C109.093 65.6719 109.421 65.9544 109.686 66.2188C109.959 66.4831 110.191 66.7428 110.383 66.998C110.474 67.1165 110.52 67.2852 110.52 67.5039V79.3711C110.52 79.5443 110.46 79.6947 110.342 79.8223C110.223 79.9408 110.073 80 109.891 80H107.84C107.694 80 107.562 79.9818 107.443 79.9453C107.334 79.8997 107.229 79.8177 107.129 79.6992L106.281 78.6055H106.186C106.04 78.8151 105.812 79.0566 105.502 79.3301C105.201 79.6035 104.759 79.8405 104.176 80.041C103.602 80.2415 102.827 80.3418 101.852 80.3418Z" fill="white"/>
<path d="M118.545 68.5977H118.6C119.283 66.7018 120.514 65.7539 122.291 65.7539C122.519 65.7539 122.706 65.7676 122.852 65.7949C122.997 65.8132 123.098 65.8314 123.152 65.8496C123.289 65.8952 123.357 66 123.357 66.1641V69.459C123.357 69.7415 123.193 69.819 122.865 69.6914C122.756 69.6458 122.596 69.6003 122.387 69.5547C122.186 69.5 121.904 69.4727 121.539 69.4727C120.6 69.4727 119.867 69.819 119.338 70.5117C118.809 71.1953 118.545 72.1296 118.545 73.3145V79.2754C118.545 79.5488 118.486 79.7402 118.367 79.8496C118.258 79.9499 118.066 80 117.793 80H114.977C114.703 80 114.507 79.9499 114.389 79.8496C114.279 79.7402 114.225 79.5488 114.225 79.2754V67.8184C114.225 67.5996 114.27 67.431 114.361 67.3125C114.553 67.0573 114.781 66.7975 115.045 66.5332C115.318 66.2689 115.651 65.9863 116.043 65.6855C116.116 65.6309 116.189 65.5944 116.262 65.5762C116.335 65.5579 116.398 65.5488 116.453 65.5488C116.581 65.5488 116.708 65.5944 116.836 65.6855C117.592 66.278 118.121 66.7839 118.422 67.2031C118.504 67.3125 118.545 67.4401 118.545 67.5859V68.5977Z" fill="white"/>
<path d="M132.271 80.3418C130.731 80.3418 129.391 80.0957 128.252 79.6035C127.113 79.1022 126.229 78.3275 125.6 77.2793C124.971 76.2311 124.656 74.8776 124.656 73.2188C124.656 70.7305 125.294 68.8483 126.57 67.5723C127.846 66.2962 129.542 65.6582 131.656 65.6582C133.033 65.6582 134.195 65.9043 135.143 66.3965C136.1 66.8887 136.824 67.5677 137.316 68.4336C137.818 69.2995 138.068 70.2884 138.068 71.4004C138.068 72.485 137.79 73.2415 137.234 73.6699C136.678 74.0983 135.867 74.3125 134.801 74.3125H128.936C129.008 75.2513 129.35 75.9668 129.961 76.459C130.581 76.9512 131.419 77.1973 132.477 77.1973C133.315 77.1973 133.985 77.0742 134.486 76.8281C134.997 76.5729 135.352 76.3724 135.553 76.2266C135.726 76.099 135.922 76.0397 136.141 76.0488C136.314 76.0488 136.56 76.0853 136.879 76.1582C137.207 76.222 137.531 76.3451 137.85 76.5273C138.077 76.6458 138.191 76.8099 138.191 77.0195C138.191 77.138 138.169 77.3066 138.123 77.5254C138.096 77.653 138.05 77.8398 137.986 78.0859C137.923 78.3229 137.84 78.5462 137.74 78.7559C137.686 78.8561 137.599 78.9518 137.48 79.043C137.298 79.1706 137.002 79.3392 136.592 79.5488C136.191 79.7585 135.639 79.9408 134.938 80.0957C134.236 80.2598 133.347 80.3418 132.271 80.3418ZM128.908 71.5098H133.365C133.83 71.5098 134.062 71.2956 134.062 70.8672C134.062 70.2201 133.857 69.6777 133.447 69.2402C133.046 68.7936 132.44 68.5703 131.629 68.5703C130.745 68.5703 130.093 68.8529 129.674 69.418C129.264 69.9831 129.008 70.6803 128.908 71.5098Z" fill="white"/>
<path d="M144.973 80.3418C143.997 80.3418 143.186 80.2598 142.539 80.0957C141.901 79.9316 141.386 79.7357 140.994 79.5078C140.611 79.2708 140.311 79.0566 140.092 78.8652C139.928 78.7103 139.91 78.5371 140.037 78.3457L141.432 76.2812C141.632 75.9896 141.86 75.9714 142.115 76.2266C142.38 76.4818 142.735 76.7324 143.182 76.9785C143.637 77.2155 144.202 77.334 144.877 77.334C145.479 77.334 145.971 77.2337 146.354 77.0332C146.745 76.8236 146.941 76.5228 146.941 76.1309C146.941 75.8574 146.855 75.6341 146.682 75.4609C146.508 75.2878 146.203 75.11 145.766 74.9277C145.328 74.7454 144.717 74.513 143.934 74.2305C142.776 73.8112 141.901 73.3053 141.309 72.7129C140.716 72.1204 140.42 71.2546 140.42 70.1152C140.42 69.0671 140.707 68.2148 141.281 67.5586C141.865 66.9023 142.607 66.4238 143.51 66.123C144.421 65.8132 145.369 65.6582 146.354 65.6582C147.602 65.6582 148.477 65.7767 148.979 66.0137C149.489 66.2415 149.817 66.4193 149.963 66.5469C150.1 66.6654 150.195 66.8021 150.25 66.957C150.368 67.3125 150.46 67.7819 150.523 68.3652C150.56 68.7025 150.473 68.9258 150.264 69.0352C150.154 69.099 149.981 69.1673 149.744 69.2402C149.507 69.3132 149.27 69.377 149.033 69.4316C148.796 69.4863 148.618 69.5137 148.5 69.5137C148.464 69.5137 148.423 69.5046 148.377 69.4863C148.34 69.459 148.272 69.3997 148.172 69.3086C148.053 69.1901 147.848 69.0534 147.557 68.8984C147.274 68.7435 146.882 68.666 146.381 68.666C145.889 68.666 145.474 68.748 145.137 68.9121C144.809 69.0671 144.645 69.3451 144.645 69.7461C144.645 70.1836 144.854 70.5117 145.273 70.7305C145.702 70.9492 146.404 71.2318 147.379 71.5781C148.145 71.8424 148.81 72.1341 149.375 72.4531C149.949 72.763 150.391 73.1732 150.701 73.6836C151.011 74.1849 151.166 74.8639 151.166 75.7207C151.166 76.8327 150.861 77.7305 150.25 78.4141C149.648 79.0885 148.874 79.5807 147.926 79.8906C146.987 80.1914 146.003 80.3418 144.973 80.3418Z" fill="white"/>
</svg>
